<?xml version="1.0" standalone="no"?>
<!DOCTYPE svg PUBLIC "-//W3C//DTD SVG 20010904//EN"
 "http://www.w3.org/TR/2001/REC-SVG-20010904/DTD/svg10.dtd">
<svg version="1.0" xmlns="http://www.w3.org/2000/svg"
 width="526.000000pt" height="526.000000pt" viewBox="0 0 526.000000 526.000000"
 preserveAspectRatio="xMidYMid meet">
<metadata>
Created by potrace 1.14, written by Peter Selinger 2001-2017
</metadata>
<g transform="translate(0.000000,526.000000) scale(0.100000,-0.100000)"
fill="#000000" stroke="none">
<path d="M2595 4733 c-43 -23 -61 -26 -135 -25 -47 0 -103 7 -125 15 -38 13
-43 13 -135 -25 -52 -21 -133 -52 -180 -69 -46 -16 -109 -47 -140 -67 -30 -20
-87 -51 -127 -68 -40 -17 -90 -45 -111 -64 -59 -53 -153 -120 -189 -135 -18
-8 -33 -18 -33 -23 0 -10 -144 -155 -217 -219 -26 -23 -59 -64 -73 -90 -13
-26 -37 -68 -53 -91 -43 -64 -147 -270 -147 -291 0 -31 -82 -224 -114 -271
-64 -90 -76 -130 -76 -242 0 -57 -7 -139 -16 -183 -9 -44 -16 -140 -17 -215
-2 -132 -1 -137 29 -205 18 -38 35 -95 38 -125 6 -52 18 -148 32 -250 4 -37 1
-51 -18 -80 -45 -67 -83 -75 -445 -96 l-113 -7 0 -32 c0 -38 19 -97 34 -107 9
-6 81 -24 136 -34 160 -29 214 -41 315 -71 139 -40 307 -105 350 -135 17 -11
50 -53 75 -92 25 -39 63 -93 85 -121 22 -27 58 -75 79 -106 22 -30 55 -65 75
-76 48 -28 221 -156 246 -183 11 -11 31 -42 45 -68 18 -34 32 -48 50 -50 32
-4 121 -37 168 -62 20 -10 49 -22 63 -24 14 -3 42 -17 62 -30 20 -14 37 -23
37 -21 0 3 17 -2 38 -10 20 -8 93 -30 162 -49 69 -19 140 -39 158 -45 19 -6
76 -15 129 -21 52 -5 107 -17 123 -25 40 -21 313 -21 367 -1 21 8 56 18 78 22
22 4 45 8 50 10 11 3 54 10 105 19 93 16 235 59 320 98 120 54 208 67 290 42
22 -7 90 -17 170 -26 52 -6 129 -14 170 -19 41 -5 114 -12 162 -16 l86 -7 -5
40 c-6 48 14 93 57 125 l30 22 -22 23 c-12 13 -18 23 -13 23 5 0 4 5 -3 12 -7
7 -12 20 -12 30 0 9 -8 22 -18 27 -23 12 -61 84 -68 131 -10 60 23 122 78 149
41 19 154 46 251 58 29 4 37 9 37 26 0 36 -46 85 -88 92 -54 9 -113 45 -140
85 -19 29 -23 44 -19 84 4 45 10 55 60 102 58 55 71 82 80 174 4 41 25 111 47
165 5 11 11 29 14 40 3 11 13 49 24 85 10 36 19 90 21 120 1 30 6 71 11 90 5
19 11 51 14 70 3 19 10 60 16 90 27 134 31 232 15 340 -9 58 -24 121 -35 140
-17 32 -51 149 -66 224 -3 17 -15 53 -26 80 -21 52 -37 105 -38 119 0 4 -11
29 -25 57 -14 27 -25 56 -25 64 0 8 -13 40 -30 71 -16 31 -30 62 -30 69 0 26
-62 138 -118 214 -33 45 -69 100 -79 123 -13 31 -29 47 -65 65 -26 13 -65 43
-87 66 -21 24 -57 62 -78 84 -21 23 -56 47 -78 55 -47 16 -105 50 -124 73 -7
9 -23 16 -36 16 -62 0 -193 81 -238 148 -18 26 -38 44 -55 48 -15 3 -37 9 -48
14 -12 5 -68 18 -125 30 -57 12 -117 29 -132 37 -15 8 -103 30 -195 49 -129
27 -199 36 -307 39 -137 5 -141 4 -190 -22z"/>
</g>
</svg>
